<svg width="407" height="91" xmlns="http://www.w3.org/2000/svg" xmlns:xlink="http://www.w3.org/1999/xlink" xml:space="preserve" overflow="hidden"><defs><clipPath id="clip0"><rect x="195" y="530" width="407" height="91"/></clipPath></defs><g clip-path="url(#clip0)" transform="translate(-195 -530)"><path d="M43.8346 82.1126C65.8138 82.165 83.9073 64.8428 84.8119 42.8822 85.3211 31.7707 81.2292 20.9404 73.5 12.9414 65.616 4.67298 54.6721 0.0207425 43.2478 0.0812504 28.0088 0.0812504 5.56565 0 0.902783 0 0.419379-0.0149578 0.0153766 0.364793 0.00041882 0.848196 0.000135237 0.857364-4.38635e-06 0.866531 6.34069e-12 0.875699L0 0.875699C0 11.9794 9.00128 20.9807 20.105 20.9807L43.8752 20.9807C50.629 21.1612 56.8731 24.6165 60.6128 30.2432 64.214 35.5902 64.9466 42.3689 62.5719 48.3621 59.8883 55.3862 53.4917 60.3113 46.0148 61.1094 45.289 61.1852 44.5598 61.2227 43.8301 61.2222 32.715 61.2096 23.7131 52.1917 23.7206 41.0766 23.7206 38.4992 24.7092 35.4207 26.4515 32.1797L4.75766 32.1797C4.34146 32.1805 3.97977 32.4658 3.88197 32.8703 2.98315 36.4159 2.65253 40.0816 2.90245 43.7308 4.2514 64.9349 21.5824 81.5921 42.8235 82.0991 43.162 82.1081 43.4961 82.1126 43.8346 82.1126Z" fill="#3B87F4" transform="matrix(1 0 0 1.00114 195.482 530)"/><path d="M131.562 82.2029C109.565 82.2593 91.4618 64.9114 90.5807 42.9318 90.0724 31.8205 94.1638 20.9904 101.893 12.991 109.78 4.73473 120.718 0.0899871 132.136 0.14896 147.375 0.148959 169.818 0.0812504 174.508 0.0677087 174.991 0.0674771 175.384 0.459354 175.384 0.942988 175.384 0.952156 175.384 0.961328 175.384 0.970491L175.384 0.970491C175.384 12.0742 166.382 21.0755 155.279 21.0755L131.522 21.0755C124.771 21.252 118.528 24.7001 114.784 30.32 111.18 35.6673 110.446 42.4482 112.821 48.4433 115.507 55.4652 121.903 60.3876 129.378 61.1861 130.104 61.2633 130.833 61.3026 131.562 61.3035 142.661 61.2836 151.653 52.2883 151.667 41.1895 151.667 38.6075 150.679 35.5335 148.937 32.288L170.626 32.288C171.044 32.2731 171.418 32.5478 171.529 32.9516 172.427 36.4972 172.758 40.1629 172.508 43.812 171.164 65.0166 153.833 81.6752 132.592 82.1803Z" fill="#FFFFFF" transform="matrix(1 0 0 1.00114 195.482 530)"/><path d="M58.6809 41.0766C50.5093 41.1316 43.84 34.5517 43.785 26.38 43.7845 26.3135 43.7845 26.2471 43.785 26.1807 43.785 34.4075 37.1158 41.0766 28.889 41.0766 37.1158 41.0766 43.785 47.7459 43.785 55.9725 43.785 47.7459 50.4543 41.0766 58.6809 41.0766Z" fill="#E5BF88" transform="matrix(1 0 0 1.00114 195.482 530)"/><path d="M87.6963 60.2788C86.5692 62.8174 85.2263 65.2549 83.6834 67.5642 82.8709 68.7785 82.0449 69.8934 81.2234 70.9226 79.9044 72.5679 78.4793 74.1257 76.9577 75.5855 78.4793 77.0453 79.9044 78.603 81.2234 80.2483 82.0449 81.2775 82.8709 82.397 83.6834 83.6112 85.2272 85.9201 86.5701 88.3576 87.6963 90.8967L87.6963 60.2788Z" fill="#E5BF88" transform="matrix(1 0 0 1.00114 195.482 530)"/><path d="M94.1693 70.9226C93.3477 69.8934 92.5217 68.7785 91.7092 67.5642 90.1663 65.2549 88.8234 62.8174 87.6963 60.2788L87.6963 90.8967C88.8225 88.3576 90.1654 85.9201 91.7092 83.6112 92.5217 82.397 93.3477 81.2775 94.1693 80.2483 95.4882 78.603 96.9133 77.0453 98.4349 75.5855 96.9133 74.1257 95.4882 72.5679 94.1693 70.9226Z" fill="#CE9867" transform="matrix(1 0 0 1.00114 195.482 530)"/><path d="M255.912 81.905C244.785 81.905 236.831 77.5445 232.286 68.9365L228.702 62.4003 214.962 62.4003 214.962 81.097C214.962 81.5434 214.6 81.905 214.154 81.905L194.432 81.905C193.986 81.905 193.624 81.5434 193.624 81.097L193.624 0.83056C193.624 0.384319 193.986 0.0225696 194.432 0.0225696L236.448 0.0225696C242.366 0.0225696 247.633 1.3316 252.111 3.90905 256.606 6.49322 260.274 10.3041 262.683 14.8959 265.156 19.5407 266.411 25.0116 266.411 31.1686 266.411 37.3256 265.143 42.8009 262.642 47.4457 260.22 52.0283 256.567 55.8425 252.093 58.4597L250.482 59.4121C250.207 59.5742 250.115 59.9285 250.277 60.2034 250.281 60.2088 250.284 60.2147 250.287 60.2201L263.193 80.623C263.447 80.9895 263.356 81.4933 262.989 81.7474 262.854 81.8413 262.693 81.8914 262.529 81.8914ZM214.962 41.5686 235.987 41.5686C238.574 41.5686 240.474 40.7336 241.977 38.946 243.575 37.0412 244.374 34.4998 244.415 31.1821 244.455 27.8644 243.625 25.3862 242.018 23.5085 240.492 21.7029 238.578 20.8768 235.987 20.8768L214.962 20.8768Z" fill="#FFFFFF" transform="matrix(1 0 0 1.00114 195.482 530)"/><path d="M308.066 0.0361113C308.512 0.0361113 308.874 0.397861 308.874 0.844102L308.874 81.097C308.874 81.5432 308.512 81.905 308.066 81.905L288.015 81.905C287.569 81.905 287.207 81.5432 287.207 81.097L287.207 0.844103C287.207 0.397863 287.569 0.036113 288.015 0.036113Z" fill="#FFFFFF" transform="matrix(1 0 0 1.00114 195.482 530)"/><path d="M333.181 81.0924 333.181 32.9516C333.181 32.5028 333.545 32.1391 333.993 32.1391L353.71 32.1391C354.159 32.1391 354.523 32.5028 354.523 32.9516L354.523 41.5686 374.226 41.5686C377.255 41.5686 379.611 40.5801 381.448 38.5443 383.073 36.7387 384.22 35.1498 384.22 31.322 384.22 27.6567 383.317 25.955 381.48 23.9192 379.643 21.8834 377.323 20.9355 374.258 20.9355L350.523 20.9355C339.482 20.963 330.509 12.0345 330.482 0.993165 330.482 0.990122 330.482 0.987075 330.482 0.984033L330.482 0.848616C330.482 0.402375 330.843 0.0406252 331.29 0.0406252L373.752 0.0902783C380.144 0.0902783 385.809 1.44445 390.602 4.12572 395.393 6.77863 399.336 10.7312 401.978 15.5279 404.853 20.7008 406.04 25.2915 406.04 31.3717 406.04 37.2127 404.844 41.7537 401.901 47.0305 399.258 51.8346 395.297 55.7829 390.485 58.41 385.673 61.0597 380.022 62.4003 373.684 62.4003L354.437 62.4003 354.437 81.0924C354.437 81.5411 354.073 81.905 353.624 81.905L333.993 81.905C333.545 81.905 333.181 81.5411 333.181 81.0924Z" fill="#FFFFFF" transform="matrix(1 0 0 1.00114 195.482 530)"/></g></svg>