<svg width="2017" height="443" xmlns="http://www.w3.org/2000/svg" xmlns:xlink="http://www.w3.org/1999/xlink" xml:space="preserve" overflow="hidden"><defs><clipPath id="clip0"><rect x="1766" y="1002" width="2017" height="443"/></clipPath><clipPath id="clip1"><rect x="2074" y="1081" width="1400" height="313"/></clipPath><clipPath id="clip2"><rect x="2074" y="1081" width="1400" height="313"/></clipPath><clipPath id="clip3"><rect x="2074" y="1081" width="1400" height="313"/></clipPath><clipPath id="clip4"><rect x="2074" y="1081" width="1400" height="313"/></clipPath></defs><g clip-path="url(#clip0)" transform="translate(-1766 -1002)"><rect x="1766" y="1002" width="2017" height="443" fill="#3D3D3D"/><g clip-path="url(#clip1)"><g clip-path="url(#clip2)"><g clip-path="url(#clip3)"><g clip-path="url(#clip4)"><path d="M150.675 282.249C226.225 282.43 288.418 222.887 291.528 147.401 293.278 109.207 279.213 71.9794 252.645 44.4841 225.545 16.0627 187.927 0.0712992 148.658 0.279286 96.276 0.279286 19.1311 0 3.10318 0 1.44155-0.0514151 0.0528547 1.25392 0.00143963 2.91554 0.000464856 2.94706-1.50774e-05 2.97857 2.17952e-11 3.01008L0 3.01008C0 41.1773 30.9405 72.1179 69.1079 72.1179L150.814 72.1179C174.029 72.7384 195.493 84.6154 208.347 103.956 220.726 122.336 223.244 145.637 215.081 166.237 205.857 190.382 183.87 207.311 158.169 210.054 155.674 210.315 153.167 210.444 150.659 210.442 112.453 210.399 81.5101 179.401 81.5359 141.195 81.5359 132.335 84.9341 121.753 90.923 110.613L16.3537 110.613C14.9231 110.616 13.6798 111.596 13.3437 112.987 10.2541 125.174 9.11767 137.774 9.97673 150.318 14.6135 223.204 74.1862 280.46 147.199 282.203 148.363 282.234 149.511 282.249 150.675 282.249Z" fill="#3B87F4" transform="matrix(1 0 0 1.00178 2076.66 1081)"/><path d="M452.224 282.56C376.613 282.754 314.386 223.123 311.357 147.571 309.61 109.378 323.674 72.1513 350.242 44.6546 377.352 16.2749 414.95 0.309317 454.197 0.512027 506.579 0.512024 583.723 0.279286 599.844 0.232738 601.505 0.231942 602.856 1.57896 602.856 3.24138 602.856 3.27289 602.856 3.30442 602.856 3.33591L602.856 3.33591C602.856 41.5032 571.913 72.4438 533.748 72.4438L452.087 72.4438C428.881 73.0505 407.422 84.9028 394.552 104.22 382.164 122.601 379.641 145.909 387.805 166.516 397.038 190.653 419.023 207.573 444.717 210.318 447.213 210.583 449.718 210.718 452.224 210.721 490.375 210.653 521.284 179.733 521.332 141.583 521.332 132.707 517.936 122.141 511.948 110.985L586.501 110.985C587.938 110.934 589.223 111.878 589.605 113.266 592.691 125.454 593.829 138.054 592.97 150.597 588.35 223.485 528.777 280.746 455.765 282.482Z" fill="#FFFFFF" transform="matrix(1 0 0 1.00178 2076.66 1081)"/><path d="M201.707 141.195C173.618 141.384 150.693 118.766 150.504 90.6772 150.503 90.4486 150.503 90.2204 150.504 89.9921 150.504 118.271 127.58 141.195 99.3015 141.195 127.58 141.195 150.504 164.119 150.504 192.397 150.504 164.119 173.429 141.195 201.707 141.195Z" fill="#E5BF88" transform="matrix(1 0 0 1.00178 2076.66 1081)"/><path d="M301.443 207.199C297.568 215.925 292.952 224.304 287.649 232.242 284.856 236.416 282.017 240.248 279.193 243.786 274.659 249.441 269.761 254.796 264.53 259.814 269.761 264.831 274.659 270.186 279.193 275.841 282.017 279.379 284.856 283.227 287.649 287.401 292.955 295.337 297.571 303.716 301.443 312.443L301.443 207.199Z" fill="#E5BF88" transform="matrix(1 0 0 1.00178 2076.66 1081)"/><path d="M323.693 243.786C320.868 240.248 318.029 236.416 315.236 232.242 309.933 224.304 305.317 215.925 301.443 207.199L301.443 312.443C305.314 303.716 309.93 295.337 315.236 287.401 318.029 283.227 320.868 279.379 323.693 275.841 328.226 270.186 333.125 264.831 338.355 259.814 333.125 254.796 328.226 249.441 323.693 243.786Z" fill="#CE9867" transform="matrix(1 0 0 1.00178 2076.66 1081)"/><path d="M879.658 281.536C841.411 281.536 814.07 266.547 798.448 236.959L786.128 214.491 738.899 214.491 738.899 278.759C738.899 280.293 737.655 281.536 736.122 281.536L668.33 281.536C666.797 281.536 665.553 280.293 665.553 278.759L665.553 2.85492C665.553 1.32104 666.797 0.0775795 668.33 0.0775795L812.754 0.0775795C833.096 0.0775795 851.2 4.57717 866.593 13.4368 882.044 22.3194 894.652 35.4188 902.933 51.2024 911.433 67.1682 915.747 85.9735 915.747 107.137 915.747 128.301 911.388 147.122 902.792 163.087 894.466 178.839 881.91 191.95 866.531 200.946L860.993 204.22C860.048 204.777 859.732 205.995 860.289 206.94 860.303 206.959 860.313 206.979 860.323 206.997L904.686 277.129C905.559 278.389 905.246 280.121 903.984 280.994 903.52 281.317 902.967 281.489 902.403 281.489ZM738.899 142.886 811.169 142.886C820.062 142.886 826.593 140.016 831.759 133.871 837.252 127.323 839.998 118.588 840.139 107.184 840.277 95.7796 837.424 87.2612 831.9 80.8069 826.654 74.6004 820.075 71.7608 811.169 71.7608L738.899 71.7608Z" fill="#FFFFFF" transform="matrix(1 0 0 1.00178 2076.66 1081)"/><path d="M1058.93 0.124127C1060.46 0.124127 1061.71 1.36759 1061.71 2.90147L1061.71 278.759C1061.71 280.292 1060.46 281.536 1058.93 281.536L990.007 281.536C988.474 281.536 987.23 280.292 987.23 278.759L987.23 2.90147C987.23 1.36759 988.474 0.124133 990.007 0.124133Z" fill="#FFFFFF" transform="matrix(1 0 0 1.00178 2076.66 1081)"/><path d="M1145.26 278.743 1145.26 113.266C1145.26 111.723 1146.51 110.473 1148.05 110.473L1215.82 110.473C1217.37 110.473 1218.62 111.723 1218.62 113.266L1218.62 142.886 1286.34 142.886C1296.76 142.886 1304.85 139.488 1311.17 132.49 1316.75 126.284 1320.7 120.822 1320.7 107.665 1320.7 95.0657 1317.59 89.2163 1311.28 82.2186 1304.96 75.2208 1296.99 71.9626 1286.45 71.9626L1204.87 71.9626C1166.92 72.0571 1136.07 41.3667 1135.98 3.41385 1135.98 3.40339 1135.98 3.39292 1135.98 3.38246L1135.98 2.91699C1135.98 1.3831 1137.22 0.139643 1138.76 0.139643L1284.72 0.310318C1306.69 0.310318 1326.16 4.96508 1342.63 14.1815 1359.1 23.3005 1372.66 36.8869 1381.74 53.3748 1391.62 71.1558 1395.7 86.9357 1395.7 107.835 1395.7 127.913 1391.59 143.522 1381.47 161.66 1372.39 178.173 1358.77 191.745 1342.23 200.775 1325.69 209.883 1306.27 214.491 1284.48 214.491L1218.32 214.491 1218.32 278.743C1218.32 280.285 1217.07 281.536 1215.53 281.536L1148.05 281.536C1146.51 281.536 1145.26 280.285 1145.26 278.743Z" fill="#FFFFFF" transform="matrix(1 0 0 1.00178 2076.66 1081)"/></g></g></g></g></g></svg>